HIERARCHY
ROOT Hips
{
  OFFSET 198.102 102.367 84.0685
  CHANNELS 6 Xposition Yposition Zposition Zrotation Xrotation Yrotation
  JOINT RightUpLeg
  {
    OFFSET -8.9458 -8.66707 0.101652
    CHANNELS 3 Zrotation Xrotation Yrotation
    JOINT RightLeg
    {
      OFFSET 0 -44.4227 1.3727
      CHANNELS 3 Zrotation Xrotation Yrotation
      JOINT RightFoot
      {
        OFFSET 0.253549 -42.0924 -1.46059
        CHANNELS 3 Zrotation Xrotation Yrotation
        JOINT RightToes
        {
          OFFSET 0.04 -4.41509 8.4991
          CHANNELS 3 Zrotation Xrotation Yrotation
          End Site
          {
            OFFSET -0.08 -0.137448 9.77979
          }
        }
      }
    }
  }
  JOINT Spine
  {
    OFFSET 0 11.8905 0
    CHANNELS 3 Zrotation Xrotation Yrotation
    JOINT Spine1
    {
      OFFSET 0 25.6574 0.127663
      CHANNELS 3 Zrotation Xrotation Yrotation
      JOINT HEad
      {
        OFFSET 0 8.73416 0.011341
        CHANNELS 3 Zrotation Xrotation Yrotation
        End Site
        {
          OFFSET -0.29 12.7742 2.51395
        }
      }
      JOINT LeftShoulder1
      {
        OFFSET 8.99 -0.362252 -0.22
        CHANNELS 3 Zrotation Xrotation Yrotation
        JOINT LeftArm
        {
          OFFSET 10.2827 -0.00338 0.322123
          CHANNELS 3 Zrotation Xrotation Yrotation
          JOINT LeftForeArm
          {
            OFFSET 32.7669 0.099144 -1.42434
            CHANNELS 3 Zrotation Xrotation Yrotation
            JOINT LeftHand
            {
              OFFSET 27.5643 0.085362 1.02216
              CHANNELS 3 Zrotation Xrotation Yrotation
              End Site
              {
                OFFSET 16.7443 -0.6 1.50291
              }
            }
          }
        }
      }
      JOINT RightShoulder
      {
        OFFSET -8.99 -0.362252 -0.22
        CHANNELS 3 Zrotation Xrotation Yrotation
        JOINT RightArm
        {
          OFFSET -10.2827 -0.00338 0.322123
          CHANNELS 3 Zrotation Xrotation Yrotation
          JOINT RightForeArm
          {
            OFFSET -32.8971 0.099144 -1.42434
            CHANNELS 3 Zrotation Xrotation Yrotation
            JOINT RightHand
            {
              OFFSET -27.4921 0.085362 1.02216
              CHANNELS 3 Zrotation Xrotation Yrotation
              End Site
              {
                OFFSET -16.6312 -0.6 1.50291
              }
            }
          }
        }
      }
    }
  }
  JOINT LeftUpLeg
  {
    OFFSET 8.9458 -8.66707 0.101652
    CHANNELS 3 Zrotation Xrotation Yrotation
    JOINT LeftLeg
    {
      OFFSET 0 -44.4227 1.3727
      CHANNELS 3 Zrotation Xrotation Yrotation
      JOINT LeftFoot
      {
        OFFSET -0.253549 -42.0924 -1.46059
        CHANNELS 3 Zrotation Xrotation Yrotation
        JOINT LeftToes
        {
          OFFSET -0.04 -4.41509 8.4991
          CHANNELS 3 Zrotation Xrotation Yrotation
          End Site
          {
            OFFSET 0.08 -0.047448 9.77979
          }
        }
      }
    }
  }
}
MOTION
Frames:	14
Frame Time:	0.0166667
200.943	103.686	-181.896	3.03365	-3.56547	-127.352	0.991001	0.715347	-11.0426	-0.325551	13.082	-11.4297	7.34138	-12.0134	-18.347	0.0462048	0.000533964	0.662642	-0.692601	-4.32921	1.58431	-1.27005	-8.67291	3.12915	4.44297	-0.411175	23.2939	7.95E-16	1.19E-15	-3.18E-15	-33.6719	23.5279	25.8423	21.4044	31.303	-138.874	41.6003	-3.15215	-10.8082	7.95E-16	1.19E-15	-3.18E-15	39.4596	51.0163	-18.6021	-33.2137	14.7009	127.124	-29.1248	-1.36228	11.3878	-8.65992	-26.1274	14.6947	2.47063	15.003	0.394299	-11.4043	-14.256	-32.1345	2.23E-14	3.50E-14	1.27E-14
200.508	103.584	-183.014	3.39707	-3.3123	-126.494	1.72493	1.00682	-10.5991	-0.130599	13.6484	-11.95	7.29304	-11.9726	-18.1977	0.0462048	0.000533964	0.662642	-0.715391	-4.38033	1.70948	-1.3048	-8.77704	3.37854	4.74223	-0.726081	22.9448	-7.95E-16	-2.78E-15	-3.18E-15	-34.8445	21.9236	27.5793	21.5516	31.0641	-138.537	42.2327	-3.32069	-11.5087	-7.95E-16	-2.78E-15	-3.18E-15	39.7718	51.3729	-18.5314	-33.0777	15.3979	126.866	-30.3786	-0.958559	11.4529	-9.30928	-26.3998	14.1972	2.81305	14.7116	-1.20086	-11.2285	-15.0214	-31.8629	1.59E-14	3.50E-14	9.54E-15
200.036	103.441	-184.127	3.67654	-2.90876	-125.712	2.45956	1.31349	-10.3756	0.116188	14.5057	-12.3463	7.20842	-11.9595	-18.0919	0.0462048	0.000533964	0.662642	-0.735493	-4.40678	1.83454	-1.33467	-8.83182	3.62804	5.15226	-0.965921	22.5123	7.95E-16	2.39E-15	0.00E+00	-35.6126	20.358	29.079	22.0305	30.7771	-138.424	42.1689	-3.53568	-11.9548	7.95E-16	2.39E-15	0.00E+00	40.293	51.9377	-18.6758	-33.1435	15.6306	126.529	-31.3397	-0.622113	11.4474	-9.9479	-26.5409	13.5816	3.59047	15.0752	-2.92486	-11.0993	-15.6174	-31.6302	1.27E-14	3.18E-14	-3.18E-15
199.524	103.252	-185.26	4.00098	-2.46526	-125.031	3.10085	1.50508	-10.3512	0.474689	15.6665	-12.602	6.95884	-11.9275	-17.3157	0.0462048	0.000533964	0.662642	-0.757017	-4.43609	1.96138	-1.36705	-8.89246	3.88102	5.63801	-1.20747	22.0359	-7.95E-16	-1.99E-15	3.18E-15	-36.0264	18.8455	30.2437	22.6779	30.5004	-138.467	41.69	-3.64443	-12.0788	-7.95E-16	-1.99E-15	3.18E-15	40.8307	52.5708	-18.8484	-33.2843	15.5581	126.112	-32.0814	-0.349094	11.4749	-10.4501	-26.6741	12.6807	4.41358	16.1417	-4.25622	-10.8735	-16.0523	-31.5251	1.27E-14	3.82E-14	0.00E+00
198.916	103.011	-186.395	4.24296	-1.94197	-124.449	3.72824	1.65671	-10.5239	0.791902	17.1547	-12.6729	6.75325	-11.9732	-16.7506	0.0462048	0.000533964	0.662642	-0.776617	-4.4529	2.07605	-1.39682	-8.92797	4.10977	6.13625	-1.35118	21.5682	1.59E-15	-7.95E-16	-6.36E-15	-36.2662	17.5621	31.185	23.221	30.2768	-138.508	40.9763	-3.72569	-12.0701	1.59E-15	-7.95E-16	-6.36E-15	41.2054	53.1958	-18.9453	-33.4075	15.4541	125.683	-32.7468	-0.130207	11.5572	-10.6214	-26.6429	11.1912	4.78888	17.8774	-4.24967	-10.606	-16.2801	-31.7991	1.11E-14	2.86E-14	-6.36E-15
198.244	102.725	-187.553	4.39123	-1.48826	-123.925	4.12483	1.76825	-10.9865	1.07072	18.9522	-12.362	6.51849	-12.0536	-16.0236	0.0462048	0.000533964	0.662642	-0.832912	-4.47377	2.16728	-1.50194	-8.97274	4.28851	6.63594	-1.42417	21.132	-1.59E-15	-3.58E-15	0.00E+00	-36.4732	16.5886	31.9368	23.5054	30.1023	-138.417	40.2873	-3.70419	-12.0272	-1.59E-15	-3.58E-15	0.00E+00	41.2926	53.6011	-18.8848	-33.5397	15.5587	125.358	-33.4396	-0.0157039	11.6744	-10.6136	-26.5782	8.30459	4.39032	19.9972	-2.03122	-9.41243	-16.2874	-32.1628	1.11E-14	2.86E-14	3.18E-15
197.475	102.415	-188.7	4.60534	-1.29563	-123.342	4.24504	1.57863	-11.5499	1.31947	21.0003	-11.9165	6.21562	-12.1134	-15.1058	0.0462048	0.000533964	0.662642	-0.947897	-4.54758	2.20205	-1.7275	-9.12502	4.34866	7.09797	-1.5373	20.6988	-2.21E-32	-3.98E-16	-3.18E-15	-36.7593	15.9067	32.4539	23.4644	29.9232	-138.105	39.783	-3.62336	-11.9173	-2.21E-32	-3.98E-16	-3.18E-15	40.999	53.6993	-18.5946	-33.7348	15.8019	125.168	-34.0565	0.0136818	11.7667	-10.573	-26.6719	3.87749	3.15771	21.2198	1.22487	-7.96769	-15.4168	-31.9568	1.59E-14	3.50E-14	6.36E-15
196.662	102.153	-189.723	4.44086	-1.2163	-122.691	3.81054	1.54515	-11.9453	1.81237	23.2651	-11.6749	5.82885	-12.0095	-13.984	0.0462048	0.000533964	0.662642	-1.14006	-4.57335	2.21693	-2.11142	-9.18393	4.36276	7.47777	-1.55821	20.1145	1.59E-15	-7.95E-16	0.00E+00	-37.2618	15.6872	32.8141	22.9733	29.7554	-137.496	39.4985	-3.74589	-11.9275	1.59E-15	-7.95E-16	0.00E+00	40.7027	53.7327	-18.5113	-33.9395	15.9835	124.991	-34.4351	0.0329541	11.8903	-10.7252	-25.6909	1.56615	2.69575	20.3447	1.06111	-6.3997	-12.3485	-30.454	1.91E-14	3.18E-14	1.59E-14
195.796	101.896	-190.633	4.0145	-0.998347	-122.094	3.11869	1.60358	-11.8067	2.70511	25.9125	-12.1668	5.54399	-11.6421	-12.8552	0.0462048	0.000533964	0.662642	-1.31095	-4.50524	2.27294	-2.4526	-9.05526	4.46237	7.76041	-1.52292	19.3858	1.59E-15	0.00E+00	0.00E+00	-38.0712	15.8457	33.0049	22.0731	29.6152	-136.698	39.7238	-3.97055	-12.2364	1.59E-15	0.00E+00	0.00E+00	40.6736	53.5455	-18.8339	-34.2907	16.025	124.767	-34.4469	0.00744434	12.1765	-10.3791	-24.3785	4.10766	3.62711	20.2971	-4.41629	-5.02424	-10.3708	-28.2918	1.75E-14	2.70E-14	9.54E-15
194.96	101.602	-191.374	3.50056	-0.745694	-121.409	2.20042	1.44745	-11.0735	4.11091	28.9762	-13.6473	5.27737	-10.9786	-11.6542	0.0462048	0.000533964	0.662642	-1.4706	-4.42373	2.31299	-2.77298	-8.89928	4.53141	7.93673	-1.36637	18.5421	-1.59E-15	0.00E+00	0.00E+00	-39.2166	16.4191	33.0354	20.8728	29.5008	-135.779	40.5359	-4.11912	-12.8666	-1.59E-15	0.00E+00	0.00E+00	41.1002	53.0973	-19.6787	-34.9427	15.9245	124.514	-34.184	-0.0846057	12.723	-10.2876	-23.2759	6.55105	4.96011	21.6223	-8.84823	-4.264	-9.67237	-27.4849	1.43E-14	2.86E-14	9.54E-15
194.19	101.223	-191.869	3.25528	-0.748702	-120.186	0.961608	0.52158	-10.2889	6.06527	32.5394	-15.9691	4.96333	-10.1958	-10.5375	0.0462048	0.000533964	0.662642	-1.6632	-4.44202	2.20857	-3.16747	-8.94052	4.30606	7.93394	-1.13446	17.5515	1.59E-15	-7.95E-16	0.00E+00	-40.6162	17.4353	32.7132	19.3025	29.4154	-134.693	41.689	-4.09645	-13.7301	1.59E-15	-7.95E-16	0.00E+00	41.8752	52.2747	-20.9519	-35.7678	15.8128	124.274	-33.7713	-0.165529	13.5325	-10.3653	-23.129	1.92696	3.71225	23.5127	-4.35175	-4.5332	-8.67112	-28.2574	1.51E-14	3.18E-14	9.54E-15
193.593	100.741	-192.126	3.11334	-0.670965	-118.983	-0.42721	-0.950278	-8.93571	8.90692	36.6364	-19.4425	4.70585	-9.39056	-9.70287	0.0462048	0.000533964	0.662642	-1.82405	-4.46987	2.07567	-3.50027	-8.99819	4.02565	7.87847	-0.787782	16.6642	-1.32E-31	-2.39E-15	-3.18E-15	-41.9652	18.7403	32.2699	17.7887	29.2309	-133.64	42.8042	-3.9575	-14.4666	-1.32E-31	-2.39E-15	-3.18E-15	42.6346	51.3495	-22.1548	-36.4336	15.7772	124.06	-33.359	-0.109716	14.4807	-10.3085	-23.8341	-2.03836	2.25887	25.5538	0.00631598	-5.25844	-7.69657	-30.1044	1.35E-14	2.86E-14	6.36E-15
193.827	100.21	-192.32	2.3131	-0.444271	-118.1	-2.28707	-2.98203	-7.2169	12.8996	41.9784	-23.8465	4.19311	-8.63134	-8.83983	0.0462048	0.000533964	0.662642	-2.01224	-4.32594	1.98538	-3.88948	-8.71389	3.83329	7.79023	-0.247955	15.9872	-3.18E-15	-7.95E-16	0.00E+00	-43.0723	20.0684	32.1155	16.5106	29.0186	-132.786	43.7879	-3.79098	-14.9522	-3.18E-15	-7.95E-16	0.00E+00	43.1305	50.6763	-23.0903	-36.7681	15.8135	123.932	-32.9485	0.160777	15.4431	-10.4599	-23.386	-3.66129	1.18397	27.0066	1.96485	-5.33818	-7.48531	-31.0935	1.59E-14	2.86E-14	9.54E-15
193.437	99.8781	-192.923	0.918085	-0.637703	-117.37	-5.02203	-4.39838	-5.40673	17.5917	46.8258	-28.3054	3.91791	-7.36233	-8.89965	0.0462048	0.000533964	0.662642	-2.38365	-4.01282	1.88712	-4.65069	-8.09604	3.61833	7.67937	0.0769047	15.5187	1.59E-15	-7.95E-16	0.00E+00	-43.7177	20.9343	32.1933	15.4953	28.9482	-132.246	44.5375	-3.39331	-15.2216	1.59E-15	-7.95E-16	0.00E+00	43.0919	50.1075	-23.45	-36.9032	15.9159	123.962	-32.598	0.623013	16.255	-10.7091	-22.3477	-0.424907	1.7989	27.5704	-0.615236	-5.15058	-7.20097	-31.6832	1.75E-14	3.18E-14	0.00E+00
